<svg width="24" height="24" viewBox="0 0 24 24" fill="none" stroke="currentColor" stroke-width="2" stroke-linecap="round" stroke-linejoin="round" role="img" aria-label="Community">
  <!-- Main User -->
  <path d="M16 21v-2a4 4 0 0 0-4-4H6a4 4 0 0 0-4 4v2" />
  <circle cx="9" cy="7" r="4" />
  <!-- Second User (Offset) -->
  <path d="M22 21v-2a4 4 0 0 0-3-3.87" />
  <path d="M16 3.13a4 4 0 0 1 0 7.75" />
  <!-- Chat Bubble -->
  <path d="M14 6h4a2 2 0 0 1 2 2v2a2 2 0 0 1-2 2h-1l-2 2v-2h-1a2 2 0 0 1-2-2V8a2 2 0 0 1 2-2z" fill="currentColor" stroke-width="1" />
</svg>
