<svg width="24" height="24" viewBox="0 0 24 24" fill="none" stroke="currentColor" stroke-width="2" stroke-linecap="round" stroke-linejoin="round" role="img" aria-label="Learning">
  <!-- Left Brain Hemisphere -->
  <path d="M9.5 2A2.5 2.5 0 0 1 12 4.5v15a2.5 2.5 0 0 1-4.96-.44 2.5 2.5 0 0 1 0-3.12 3 3 0 0 1 0-4.88A2.5 2.5 0 0 1 9.5 2Z" />
  <!-- Right Brain Hemisphere -->
  <path d="M14.5 2A2.5 2.5 0 0 0 12 4.5v15a2.5 2.5 0 0 0 4.96-.44 2.5 2.5 0 0 0 0-3.12 3 3 0 0 0 0-4.88A2.5 2.5 0 0 0 14.5 2Z" />
  <!-- Lightning Bolt overlay -->
  <path d="m11.5 15 2-2.5h-3l2-2.5" stroke-width="2" />
</svg>
