<svg width="24" height="24" viewBox="0 0 24 24" fill="none" stroke="currentColor" stroke-width="2" stroke-linecap="round" stroke-linejoin="round" role="img" aria-label="Study">
  <!-- Open Book -->
  <path d="M2 3h6a4 4 0 0 1 4 4v14a3 3 0 0 0-3-3H2z" />
  <path d="M22 3h-6a4 4 0 0 0-4 4v14a3 3 0 0 1 3-3h7z" />
  <!-- Bookmark -->
  <path d="M10 2v4l-2-1.5L6 6V2z" fill="currentColor" />
  <!-- Graduation Cap Accent -->
  <path d="M15 11l3-1.5 3 1.5-3 1.5z" fill="currentColor" />
  <path d="M16 12.5v1.5a2 2 0 0 0 4 0v-1.5" />
</svg>
